<svg xmlns="http://www.w3.org/2000/svg" xmlns:xlink="http://www.w3.org/1999/xlink" x="0" y="0" width="510.2799987792969" height="337.8999938964844" style="
        width:510.2799987792969px;
        height:337.8999938964844px;
        background: #FFF;
        fill: none;
">
        
        
        <svg xmlns="http://www.w3.org/2000/svg" class="role-diagram-draw-area"><g class="shapes-region" style="stroke: black; fill: none;"><g class="arrow-line"><path class="connection real" stroke-dasharray="" d="  M87.49,110.2 L202.32,273.95" style="stroke: rgb(0, 0, 0); stroke-width: 2; fill: none; fill-opacity: 1;"/><g stroke="#000" fill="#000" transform="matrix(0.5741481725373897,0.8187514128060945,-0.8187514128060945,0.5741481725373897,202.32087443525018,273.9464132455052)" style="stroke: rgb(0, 0, 0); fill: rgb(0, 0, 0); stroke-width: 2;"><circle cx="0" cy="0" r="4.355"/></g><g stroke="#000" fill="#000" transform="matrix(0.5741481725373897,0.8187514128060945,-0.8187514128060945,0.5741481725373897,87.49123992777214,110.19613068428629)" style="stroke: rgb(0, 0, 0); fill: rgb(0, 0, 0); stroke-width: 2;"><circle cx="0" cy="0" r="4.355"/></g></g><g class="arrow-line"><path class="connection real" stroke-dasharray="" d="  M202.32,273.95 L366.07,159.12" style="stroke: rgb(0, 0, 0); stroke-width: 2; fill: none; fill-opacity: 1;"/><g stroke="#000" fill="#000" transform="matrix(0.8187514128060938,-0.5741481725373907,0.5741481725373907,0.8187514128060938,366.07115699646897,159.11677873802716)" style="stroke: rgb(0, 0, 0); fill: rgb(0, 0, 0); stroke-width: 2;"><circle cx="0" cy="0" r="4.355"/></g><g stroke="#000" fill="#000" transform="matrix(0.8187514128060938,-0.5741481725373907,0.5741481725373907,0.8187514128060938,202.32087443525018,273.9464132455052)" style="stroke: rgb(0, 0, 0); fill: rgb(0, 0, 0); stroke-width: 2;"><circle cx="0" cy="0" r="4.355"/></g></g><g class="arrow-line"><path class="connection real" stroke-dasharray="" d="  M162.37,51.5 L221.35,242.61" style="stroke: rgb(126, 211, 33); stroke-opacity: 1; stroke-width: 2; fill: none; fill-opacity: 1;"/><g stroke="rgb(126,211,33)" stroke-opacity="1" fill="rgb(126,211,33)" fill-opacity="1" transform="matrix(0.2948742999179788,0.9555360523014722,-0.9555360523014722,0.2948742999179788,221.3491929332252,242.60991883434804)" style="stroke: rgb(126, 211, 33); fill: rgb(126, 211, 33); stroke-width: 2;"><circle cx="0" cy="0" r="4.355"/></g><g stroke="rgb(126,211,33)" stroke-opacity="1" fill="rgb(126,211,33)" fill-opacity="1" transform="matrix(0.2948742999179788,0.9555360523014722,-0.9555360523014722,0.2948742999179788,162.37433294962912,51.50270837405361)" style="stroke: rgb(126, 211, 33); fill: rgb(126, 211, 33); stroke-width: 2;"><circle cx="0" cy="0" r="4.355"/></g></g><g class="arrow-line"><path class="connection real" stroke-dasharray="" d="  M221.35,242.61 L412.46,183.64" style="stroke: rgb(126, 211, 33); stroke-opacity: 1; stroke-width: 2; fill: none; fill-opacity: 1;"/><g stroke="rgb(126,211,33)" stroke-opacity="1" fill="rgb(126,211,33)" fill-opacity="1" transform="matrix(0.9555360523014722,-0.294874299917979,0.294874299917979,0.9555360523014722,412.45640339351957,183.63505885075193)" style="stroke: rgb(126, 211, 33); fill: rgb(126, 211, 33); stroke-width: 2;"><circle cx="0" cy="0" r="4.355"/></g><g stroke="rgb(126,211,33)" stroke-opacity="1" fill="rgb(126,211,33)" fill-opacity="1" transform="matrix(0.9555360523014722,-0.294874299917979,0.294874299917979,0.9555360523014722,221.34919293322523,242.60991883434804)" style="stroke: rgb(126, 211, 33); fill: rgb(126, 211, 33); stroke-width: 2;"><circle cx="0" cy="0" r="4.355"/></g></g><g class="arrow-line"><path class="connection real" stroke-dasharray="" d="  M373.46,163.08 L400.71,178.11" style="stroke: rgb(0, 0, 0); stroke-width: 1; fill: none; fill-opacity: 1;"/><g stroke="#000" transform="matrix(-0.8755488623535497,-0.4831295785101601,0.4831295785101601,-0.8755488623535497,402.46002197265625,179.08000183105463)" style="stroke: rgb(0, 0, 0); stroke-width: 1;"><path d=" M10.93,-3.29 Q4.96,-0.45 0,0 Q4.96,0.45 10.93,3.29"/></g></g><g/></g><g/><g/><g/></svg>
        <svg xmlns="http://www.w3.org/2000/svg" xmlns:xlink="http://www.w3.org/1999/xlink" width="509" height="336.6199951171875" style="width:509px;height:336.6199951171875px;font-family:Asana-Math, Asana;background:#FFF;"><g><g><g><g transform="matrix(1,0,0,1,56.6400146484375,98.99998474121094)"><path transform="matrix(0.017,0,0,-0.017,0,0)" d="M567 55C567 39 552 30 524 28L480 25L480 -3C582 0 582 0 602 0C622 0 622 0 724 -3L724 25L698 28C651 35 650 35 642 80L555 705L509 705L136 112C100 56 82 40 48 32L28 27L28 -3C120 0 120 0 140 0C159 0 161 0 247 -3L247 25L195 28C179 29 164 38 164 47C164 55 171 69 190 102L292 277L538 277L563 89L563 86C563 84 567 69 567 55ZM496 601L533 313L317 313Z" stroke="rgb(0,0,0)" stroke-opacity="1" stroke-width="8" fill="rgb(0,0,0)" fill-opacity="1"></path></g></g><g><g><g><g><g transform="matrix(1,0,0,1,69.91998291015625,102.64998474121094)"><path transform="matrix(0.0119,0,0,-0.0119,0,0)" d="M263 689C108 689 29 566 29 324C29 207 50 106 85 57C120 8 176 -20 238 -20C389 -20 465 110 465 366C465 585 400 689 263 689ZM245 654C342 654 381 556 381 316C381 103 343 15 251 15C154 15 113 116 113 360C113 571 150 654 245 654Z" stroke="rgb(0,0,0)" stroke-opacity="1" stroke-width="8" fill="rgb(0,0,0)" fill-opacity="1"></path></g></g></g></g></g></g></g><g><g><g><g transform="matrix(1,0,0,1,187.6400146484375,299.99998474121094)"><path transform="matrix(0.017,0,0,-0.017,0,0)" d="M543 227C543 337 459 353 377 365C434 385 459 397 490 425C536 464 559 511 559 562C559 644 501 692 401 692C399 692 389 692 374 691L311 690C299 689 263 689 251 689C232 689 201 690 152 691L100 692L97 664L150 662C174 661 185 653 185 635C185 621 181 589 176 559L89 55C85 37 73 30 31 23L26 -3L63 -2C90 0 105 0 117 0C128 0 154 -1 180 -2L217 -3L237 -4C256 -5 269 -6 277 -6C392 -6 543 87 543 227ZM166 41L217 340L302 340C405 340 455 298 455 211C455 108 382 34 282 34C228 34 207 38 166 41ZM352 655C433 655 473 619 473 544C473 439 399 376 275 376L223 376L272 650C288 650 329 655 352 655Z" stroke="rgb(0,0,0)" stroke-opacity="1" stroke-width="8" fill="rgb(0,0,0)" fill-opacity="1"></path></g></g><g><g><g><g><g transform="matrix(1,0,0,1,198.52001953125,303.6499847412109)"><path transform="matrix(0.0119,0,0,-0.0119,0,0)" d="M263 689C108 689 29 566 29 324C29 207 50 106 85 57C120 8 176 -20 238 -20C389 -20 465 110 465 366C465 585 400 689 263 689ZM245 654C342 654 381 556 381 316C381 103 343 15 251 15C154 15 113 116 113 360C113 571 150 654 245 654Z" stroke="rgb(0,0,0)" stroke-opacity="1" stroke-width="8" fill="rgb(0,0,0)" fill-opacity="1"></path></g></g></g></g></g></g></g><g><g><g><g transform="matrix(1,0,0,1,372.63995361328125,146.99998474121094)"><path transform="matrix(0.017,0,0,-0.017,0,0)" d="M45 284C45 90 152 -18 343 -18C439 -18 510 5 600 67C600 67 610 103 610 103C610 103 600 110 600 110C506 53 454 35 376 35C219 35 133 131 133 309C133 447 190 653 418 653C489 653 541 639 597 603L597 519L624 519C629 576 637 619 651 665C575 694 518 706 456 706C276 706 45 578 45 284Z" stroke="rgb(0,0,0)" stroke-opacity="1" stroke-width="8" fill="rgb(0,0,0)" fill-opacity="1"></path></g></g><g><g><g><g><g transform="matrix(1,0,0,1,384.83001708984375,150.64998474121094)"><path transform="matrix(0.0119,0,0,-0.0119,0,0)" d="M263 689C108 689 29 566 29 324C29 207 50 106 85 57C120 8 176 -20 238 -20C389 -20 465 110 465 366C465 585 400 689 263 689ZM245 654C342 654 381 556 381 316C381 103 343 15 251 15C154 15 113 116 113 360C113 571 150 654 245 654Z" stroke="rgb(0,0,0)" stroke-opacity="1" stroke-width="8" fill="rgb(0,0,0)" fill-opacity="1"></path></g></g></g></g></g></g></g><g><g><g><g transform="matrix(1,0,0,1,155.6400146484375,36)"><path transform="matrix(0.017,0,0,-0.017,0,0)" d="M567 55C567 39 552 30 524 28L480 25L480 -3C582 0 582 0 602 0C622 0 622 0 724 -3L724 25L698 28C651 35 650 35 642 80L555 705L509 705L136 112C100 56 82 40 48 32L28 27L28 -3C120 0 120 0 140 0C159 0 161 0 247 -3L247 25L195 28C179 29 164 38 164 47C164 55 171 69 190 102L292 277L538 277L563 89L563 86C563 84 567 69 567 55ZM496 601L533 313L317 313Z" stroke="rgb(0,0,0)" stroke-opacity="1" stroke-width="8" fill="rgb(0,0,0)" fill-opacity="1"></path></g></g><g><g><g><g><g transform="matrix(1,0,0,1,168.91998291015625,39.65)"><path transform="matrix(0.0119,0,0,-0.0119,0,0)" d="M418 -3L418 27L366 30C311 33 301 44 301 96L301 700L60 598L67 548L217 614L217 96C217 44 206 33 152 30L96 27L96 -3C250 0 250 0 261 0C292 0 402 -3 418 -3Z" stroke="rgb(0,0,0)" stroke-opacity="1" stroke-width="8" fill="rgb(0,0,0)" fill-opacity="1"></path></g></g></g></g></g></g></g><g><g><g><g transform="matrix(1,0,0,1,224.6400146484375,221.99998474121094)"><path transform="matrix(0.017,0,0,-0.017,0,0)" d="M543 227C543 337 459 353 377 365C434 385 459 397 490 425C536 464 559 511 559 562C559 644 501 692 401 692C399 692 389 692 374 691L311 690C299 689 263 689 251 689C232 689 201 690 152 691L100 692L97 664L150 662C174 661 185 653 185 635C185 621 181 589 176 559L89 55C85 37 73 30 31 23L26 -3L63 -2C90 0 105 0 117 0C128 0 154 -1 180 -2L217 -3L237 -4C256 -5 269 -6 277 -6C392 -6 543 87 543 227ZM166 41L217 340L302 340C405 340 455 298 455 211C455 108 382 34 282 34C228 34 207 38 166 41ZM352 655C433 655 473 619 473 544C473 439 399 376 275 376L223 376L272 650C288 650 329 655 352 655Z" stroke="rgb(0,0,0)" stroke-opacity="1" stroke-width="8" fill="rgb(0,0,0)" fill-opacity="1"></path></g></g><g><g><g><g><g transform="matrix(1,0,0,1,235.52001953125,225.64998474121094)"><path transform="matrix(0.0119,0,0,-0.0119,0,0)" d="M418 -3L418 27L366 30C311 33 301 44 301 96L301 700L60 598L67 548L217 614L217 96C217 44 206 33 152 30L96 27L96 -3C250 0 250 0 261 0C292 0 402 -3 418 -3Z" stroke="rgb(0,0,0)" stroke-opacity="1" stroke-width="8" fill="rgb(0,0,0)" fill-opacity="1"></path></g></g></g></g></g></g></g><g><g><g><g transform="matrix(1,0,0,1,424.63995361328125,181.99998474121094)"><path transform="matrix(0.017,0,0,-0.017,0,0)" d="M45 284C45 90 152 -18 343 -18C439 -18 510 5 600 67C600 67 610 103 610 103C610 103 600 110 600 110C506 53 454 35 376 35C219 35 133 131 133 309C133 447 190 653 418 653C489 653 541 639 597 603L597 519L624 519C629 576 637 619 651 665C575 694 518 706 456 706C276 706 45 578 45 284ZM791 470C848 543 886 610 920 696L907 709C871 697 861 694 810 679C804 599 780 533 732 456L747 446Z" stroke="rgb(0,0,0)" stroke-opacity="1" stroke-width="8" fill="rgb(0,0,0)" fill-opacity="1"></path></g></g><g><g transform="matrix(1,0,0,1,441.02996826171875,181.99998474121094)"><path transform="matrix(0.017,0,0,-0.017,0,0)" d="M204 123C177 114 159 108 106 93C99 17 74 -48 16 -144L30 -155L71 -136C152 -31 190 32 218 109Z" stroke="rgb(0,0,0)" stroke-opacity="1" stroke-width="8" fill="rgb(0,0,0)" fill-opacity="1"></path></g></g><g><g transform="matrix(1,0,0,1,448.66998291015625,181.99998474121094)"><path transform="matrix(0.017,0,0,-0.017,0,0)" d="M294 284C294 90 401 -18 592 -18C688 -18 759 5 849 67C849 67 859 103 859 103C859 103 849 110 849 110C755 53 703 35 625 35C468 35 382 131 382 309C382 447 439 653 667 653C738 653 790 639 846 603L846 519L873 519C878 576 886 619 900 665C824 694 767 706 705 706C525 706 294 578 294 284Z" stroke="rgb(0,0,0)" stroke-opacity="1" stroke-width="8" fill="rgb(0,0,0)" fill-opacity="1"></path></g></g><g><g><g><g><g transform="matrix(1,0,0,1,465.10003662109375,185.64998474121094)"><path transform="matrix(0.0119,0,0,-0.0119,0,0)" d="M418 -3L418 27L366 30C311 33 301 44 301 96L301 700L60 598L67 548L217 614L217 96C217 44 206 33 152 30L96 27L96 -3C250 0 250 0 261 0C292 0 402 -3 418 -3Z" stroke="rgb(0,0,0)" stroke-opacity="1" stroke-width="8" fill="rgb(0,0,0)" fill-opacity="1"></path></g></g></g></g></g></g></g></svg>
</svg>
